HIERARCHY
ROOT Hips
{
	OFFSET 0.000000 0.000000 0.000000 
	CHANNELS 6 Xposition Yposition Zposition Yrotation Zrotation Xrotation 
	JOINT Lumbar
	{
		OFFSET 0.000000 0.000000 0.000000 
		CHANNELS 3 Zrotation Xrotation Yrotation
		JOINT Neck
		{
			OFFSET 0.000000 0.445665 0.000000 
			CHANNELS 3 Zrotation Xrotation Yrotation
			End Site
			{
				OFFSET 0.000000 0.227535 0.000000 
			}
		}
		JOINT RightShoulder
		{
			OFFSET 0.019635 0.377685 0.194865 
			CHANNELS 3 Zrotation Xrotation Yrotation
			JOINT RightElbow
			{
				OFFSET 0.000000 -0.243375 0.000000 
				CHANNELS 2 Zrotation Yrotation
				JOINT RightWrist
				{
					OFFSET 0.000000 -0.264825 0.000000 
					CHANNELS 2 Zrotation Xrotation
					End Site
					{
						OFFSET 0.006600 -0.176220 0.000990 
					}
				}
			}
		}
		JOINT LeftShoulder
		{
			OFFSET 0.019635 0.377685 -0.194865 
			CHANNELS 3 Zrotation Xrotation Yrotation
			JOINT LeftElbow
			{
				OFFSET 0.000000 -0.243375 0.000000 
				CHANNELS 2 Zrotation Yrotation
				JOINT LeftWrist
				{
					OFFSET 0.000000 -0.264825 0.000000 
					CHANNELS 2 Zrotation Xrotation
					End Site
					{
						OFFSET 0.006600 -0.176220 -0.000990 
					}
				}
			}
		}
	}
	JOINT RightHip
	{
		OFFSET 0.052140 -0.069960 0.075570 
		CHANNELS 3 Zrotation Xrotation Yrotation
		JOINT RightKnee
		{
			OFFSET 0.000000 -0.402270 0.000000 
			CHANNELS 1 Zrotation
			JOINT RightAnkle
			{
				OFFSET 0.000000 -0.404085 0.000000 
				CHANNELS 3 Zrotation Xrotation Yrotation
				End Site
				{
					OFFSET 0.204105 -0.089430 0.008415 
				}
			}
		}
	}
	JOINT LeftHip
	{
		OFFSET 0.052140 -0.069960 -0.075570 
		CHANNELS 3 Zrotation Xrotation Yrotation
		JOINT LeftKnee
		{
			OFFSET 0.000000 -0.402270 0.000000 
			CHANNELS 1 Zrotation
			JOINT LeftAnkle
			{
				OFFSET 0.000000 -0.404085 0.000000 
				CHANNELS 3 Zrotation Xrotation Yrotation
				End Site
				{
					OFFSET 0.204105 -0.089430 -0.008415 
				}
			}
		}
	}
}
MOTION
Frames: 31
Frame Time: 0.02
0.00104 0.00025 -0.00023 22.20903 -22.87694 -6.68525 42.01876 2.59775 -5.98338 -13.22043 -0.75493 -0.40337 75.9037 -98.89973 64.17193 6.43176 97.90179 11.33818 0.82222 45.46777 99.24444 -64.17059 7.99536 -88.66787 6.99208 1.04083 38.40074 -2.80145 -3.81744 -22.48232 -7.18446 -4.13409 -2.80839 42.50204 7.44873 1.83203 -27.63926 -6.63298 2.42615 1.89535
0.00135 0.0003 -0.00017 22.23632 -22.88625 -6.68042 42.02707 2.58882 -5.9897 -13.2099 -0.75228 -0.4037 75.56332 -98.9416 64.17173 6.48479 97.87249 11.31715 0.78898 45.36097 99.23642 -64.17059 8.0016 -88.6551 6.96878 1.04824 38.38355 -2.83481 -4.01283 -22.48437 -7.17138 -4.10921 -2.79588 42.49618 7.42645 1.73304 -27.63842 -6.63264 2.43401 1.89932
0.00165 0.00035 -0.00011 22.2635 -22.89551 -6.67561 42.03533 2.57993 -5.99596 -13.19941 -0.74962 -0.40403 75.22347 -98.98335 64.17152 6.53774 97.84326 11.29616 0.7558 45.25464 99.22839 -64.17059 8.00783 -88.64237 6.94555 1.0556 38.36636 -2.86808 -4.20774 -22.48642 -7.15832 -4.08437 -2.78339 42.4903 7.40425 1.63438 -27.63759 -6.6323 2.44186 1.90328
0.00196 0.0004 -6e-05 22.2907 -22.9048 -6.67079 42.04361 2.57102 -6.00225 -13.18891 -0.74697 -0.40435 74.88403 -99.0251 64.17132 6.59062 97.81404 11.27519 0.72265 45.14816 99.22039 -64.17058 8.01406 -88.62963 6.92232 1.06298 38.34921 -2.90134 -4.40255 -22.48847 -7.14528 -4.05956 -2.77092 42.48445 7.38204 1.5357 -27.63675 -6.63196 2.44969 1.90724
0.00227 0.00044 0 22.31803 -22.91414 -6.66596 42.05192 2.56209 -6.00861 -13.17836 -0.74435 -0.40468 74.5443 -99.06696 64.17112 6.64355 97.78478 11.25419 0.68947 45.04124 99.2124 -64.17058 8.02027 -88.61687 6.89903 1.07042 38.33206 -2.93469 -4.59781 -22.49052 -7.13222 -4.03472 -2.75842 42.47867 7.35973 1.43668 -27.63592 -6.63162 2.45755 1.91121
0.00258 0.00049 6e-05 22.34489 -22.92324 -6.66116 42.0601 2.55327 -6.01468 -13.168 -0.7416 -0.40501 74.20427 -99.10849 64.17092 6.69655 97.7556 11.2332 0.65627 44.9362 99.20426 -64.17058 8.02654 -88.60424 6.87593 1.07762 38.31481 -2.9678 -4.79194 -22.49256 -7.11917 -4.00989 -2.74595 42.47258 7.33775 1.33876 -27.63507 -6.63127 2.46537 1.91516
0.00289 0.00054 0.00011 22.37265 -22.93281 -6.65632 42.06852 2.54423 -6.02132 -13.15728 -0.73911 -0.40533 73.8651 -99.15064 64.17071 6.74934 97.72628 11.21222 0.62314 44.82727 99.19648 -64.17058 8.03271 -88.59129 6.85244 1.0853 38.29778 -3.00136 -4.98817 -22.49463 -7.10611 -3.98506 -2.73345 42.46709 7.31516 1.2388 -27.63425 -6.63096 2.47324 1.91914
0.0032 0.00059 0.00017 22.3996 -22.94196 -6.65151 42.07674 2.53539 -6.02744 -13.14688 -0.73638 -0.40566 73.52535 -99.1922 64.17051 6.80232 97.6971 11.19125 0.58996 44.72234 99.1883 -64.17058 8.03895 -88.57874 6.82939 1.09253 38.28056 -3.03449 -5.18239 -22.49667 -7.09307 -3.96024 -2.72098 42.46107 7.2931 1.14061 -27.63341 -6.63061 2.48107 1.9231
0.0035 0.00063 0.00023 22.4255 -22.95053 -6.64674 42.08465 2.52678 -6.03288 -13.1369 -0.73333 -0.40599 73.18379 -99.23313 64.17031 6.85559 97.66803 11.17019 0.55664 44.62066 99.17988 -64.17058 8.04537 -88.56626 6.80656 1.09921 38.26301 -3.06715 -5.37453 -22.49869 -7.08003 -3.93537 -2.7085 42.45431 7.27182 1.04498 -27.63252 -6.63021 2.48886 1.92699
0.00382 0.00068 0.00029 22.45728 -22.96224 -6.64173 42.09415 2.51682 -6.0421 -13.12459 -0.73206 -0.40632 72.84933 -99.27796 64.17009 6.90738 97.63816 11.14935 0.5239 44.49533 99.17358 -64.17058 8.05104 -88.55214 6.78151 1.10904 38.24707 -3.1027 -5.57975 -22.50086 -7.06688 -3.91058 -2.69594 42.45151 7.24645 0.93577 -27.63185 -6.63006 2.49688 1.93117
0.00411 0.00073 0.00033 22.47673 -22.96746 -6.63726 42.1004 2.50971 -6.04344 -13.11715 -0.72709 -0.40664 72.50206 -99.3144 64.16992 6.96216 97.61007 11.12823 0.49007 44.42307 99.16234 -64.17058 8.05811 -88.54225 6.76173 1.11224 38.22792 -3.13204 -5.75667 -22.5027 -7.05404 -3.8858 -2.68365 42.44056 7.22946 0.85452 -27.63075 -6.62941 2.50445 1.93479
0.00434 0.00076 0.00033 22.46154 -22.95369 -6.63407 42.0969 2.51056 -6.02209 -13.12364 -0.71135 -0.40693 72.10185 -99.32893 64.1699 7.02624 97.5862 11.10483 0.45212 44.47236 99.14141 -64.17058 8.07069 -88.54076 6.75174 1.09749 38.19848 -3.14493 -5.86113 -22.50363 -7.04139 -3.85961 -2.67137 42.40542 7.23747 0.85612 -27.62825 -6.62734 2.51042 1.93653
0.00454 0.00078 0.00031 22.43411 -22.93364 -6.63144 42.09031 2.51424 -5.99302 -13.13492 -0.69199 -0.40722 71.69241 -99.33484 64.16994 7.0931 97.56428 11.08145 0.41331 44.57973 99.11485 -64.17058 8.08449 -88.54612 6.74781 1.07635 38.16611 -3.1515 -5.93627 -22.50423 -7.02917 -3.8337 -2.6595 42.36245 7.25347 0.88446 -27.62537 -6.62477 2.51605 1.93779
0.00475 0.00081 0.0003 22.41282 -22.91721 -6.62867 42.08564 2.51654 -5.96821 -13.14365 -0.67472 -0.4075 71.29836 -99.34399 64.16995 7.15798 97.54184 11.059 0.37558 44.67587 99.08834 -64.17059 8.09646 -88.54792 6.7443 1.05753 38.13602 -3.16053 -6.02133 -22.50497 -7.01716 -3.80862 -2.64794 42.32424 7.26457 0.89678 -27.6228 -6.62246 2.52203 1.93949
0.00497 0.00084 0.0003 22.38911 -22.89748 -6.62545 42.07868 2.51925 -5.94025 -13.15397 -0.65567 -0.40781 70.8556 -99.35601 64.16996 7.22594 97.51769 11.03248 0.33479 44.70682 99.0723 -64.17059 8.11327 -88.54339 6.72785 1.03983 38.10181 -3.17115 -6.12045 -22.5057 -7.00343 -3.77953 -2.63432 42.28084 7.28128 0.92625 -27.61962 -6.62003 2.52704 1.94021
0.00516 0.00086 0.00027 22.3675 -22.88322 -6.62328 42.07588 2.52173 -5.91694 -13.16212 -0.63932 -0.40807 70.51391 -99.35997 64.16998 7.28809 97.4978 11.01458 0.30036 44.88891 99.03323 -64.1706 8.12099 -88.56398 6.73925 1.01993 38.07563 -3.1771 -6.18364 -22.50644 -6.99338 -3.75881 -2.62505 42.24651 7.28791 0.92541 -27.61764 -6.61773 2.53415 1.94293
0.00526 0.00088 0.0002 22.35525 -22.88474 -6.62409 42.08429 2.5233 -5.90929 -13.16289 -0.63259 -0.40816 70.43928 -99.34404 64.16999 7.33443 97.48777 11.01974 0.28196 45.46167 98.931 -64.17061 8.09772 -88.55986 6.83101 0.98093 38.07094 -3.17066 -6.15236 -22.50672 -6.99356 -3.76167 -2.62806 42.23829 7.26737 0.84301 -27.61909 -6.61589 2.54574 1.95067
0.00532 0.00089 0.0001 22.34543 -22.89209 -6.62589 42.09713 2.52446 -5.90643 -13.16137 -0.62845 -0.40821 70.47001 -99.32026 64.16998 7.37504 97.48268 11.03408 0.27016 46.18764 98.80592 -64.1706 8.0665 -88.59512 6.94989 0.9422 38.07462 -3.15993 -6.08635 -22.5071 -6.99739 -3.77285 -2.63537 42.23956 7.23609 0.72822 -27.62177 -6.6142 2.55963 1.96052
0.0054 0.0009 2e-05 22.33417 -22.8974 -6.6271 42.10867 2.52553 -5.90074 -13.16099 -0.62229 -0.40829 70.46106 -99.29991 64.17006 7.41718 97.47571 11.0442 0.25667 46.85065 98.69198 -64.17069 8.04236 -88.67664 7.05288 0.91351 38.07544 -3.15185 -6.03794 -22.50781 -6.99942 -3.77988 -2.64047 42.23712 7.20781 0.62174 -27.62389 -6.61246 2.57349 1.96988
0.00549 0.00091 -6e-05 22.324 -22.90013 -6.62894 42.11724 2.52786 -5.8975 -13.16019 -0.61959 -0.40832 70.41448 -99.27979 64.16998 7.46235 97.46548 11.05294 0.23823 47.48431 98.57483 -64.17059 8.00287 -88.49951 7.1703 0.84359 38.07243 -3.14062 -5.98108 -22.50699 -7.00205 -3.78846 -2.64664 42.23213 7.1871 0.54056 -27.62601 -6.61062 2.58337 1.97741
0.00556 0.00092 -0.00016 22.3122 -22.90941 -6.62967 42.13287 2.52743 -5.89043 -13.15984 -0.61031 -0.40844 70.47478 -99.25747 64.17 7.50179 97.46546 11.0687 0.23093 48.21879 98.45876 -64.17063 7.99437 -88.85538 7.26506 0.85731 38.07914 -3.13496 -5.93363 -22.50933 -7.00431 -3.7958 -2.65162 42.2345 7.1488 0.40204 -27.62841 -6.60904 2.60171 1.98902
0.00558 0.00091 -0.00031 22.29609 -22.93795 -6.62714 42.16909 2.51958 -5.87144 -13.16001 -0.58262 -0.40885 70.77499 -99.23159 64.17033 7.51399 97.47178 11.09268 0.25886 49.15706 98.35197 -64.17109 8.06436 -90.79914 7.28146 1.12325 38.11331 -3.14624 -5.92371 -22.52089 -7.00462 -3.79752 -2.65213 42.2576 7.05732 0.08357 -27.63131 -6.60813 2.64608 2.01341
0.00558 0.0009 -0.00049 22.27812 -22.97245 -6.62341 42.21194 2.50892 -5.84856 -13.16106 -0.54819 -0.40935 71.18411 -99.20426 64.1694 7.52577 97.49117 11.13055 0.29636 50.19662 98.24593 -64.17016 8.16658 -93.25238 7.2756 1.46989 38.15659 -3.16323 -5.92408 -22.53555 -7.00444 -3.79772 -2.65131 42.28734 6.94977 -0.28621 -27.63443 -6.60748 2.69827 2.04144
0.00559 0.0009 -0.00066 22.26065 -23.0025 -6.6202 42.25025 2.49954 -5.82755 -13.16234 -0.51655 -0.4098 71.56339 -99.17652 64.17076 7.54262 97.51927 11.16095 0.32587 51.21577 98.1404 -64.17176 8.2611 -95.3925 7.28618 1.76503 38.19388 -3.17725 -5.91784 -22.54844 -7.00453 -3.79874 -2.65119 42.3122 6.85433 -0.61313 -27.63743 -6.6067 2.74479 2.06647
0.0056 0.00089 -0.00082 22.24495 -23.03995 -6.61723 42.29485 2.4903 -5.80602 -13.1603 -0.48603 -0.41028 71.86557 -99.1507 64.17048 7.52728 97.48936 11.17405 0.37215 52.13835 98.03468 -64.17157 8.32969 -97.88689 7.27185 2.12079 38.23896 -3.19253 -5.91834 -22.56277 -7.00456 -3.79958 -2.65083 42.34504 6.73843 -1.02326 -27.64056 -6.60597 2.80038 2.09726
0.0056 0.00088 -0.00099 22.22479 -23.06354 -6.61335 42.32825 2.47991 -5.78488 -13.16613 -0.45171 -0.41073 72.35004 -99.12352 64.1663 7.59325 97.5787 11.25459 0.38423 53.27633 97.92455 -64.16696 8.45541 -99.75323 7.30273 2.37194 38.27027 -3.20678 -5.90793 -22.57493 -7.00454 -3.80024 -2.65055 42.36299 6.66123 -1.27238 -27.64345 -6.6052 2.83882 2.1169
0.00555 0.00088 -0.00122 22.19544 -23.04545 -6.6083 42.32587 2.46872 -5.76339 -13.18758 -0.40718 -0.41109 73.29567 -99.0562 64.17892 7.76406 98.03201 11.25711 0.31278 55.01209 97.84341 -64.18096 8.78104 -99.8584 7.47086 2.29087 38.2577 -3.21535 -5.86324 -22.57949 -7.00456 -3.80135 -2.65108 42.33588 6.69673 -1.05993 -27.64556 -6.60415 2.82873 2.10472
0.00549 0.00087 -0.00146 22.16113 -23.0135 -6.6022 42.31256 2.45613 -5.74287 -13.21812 -0.35931 -0.41143 74.39616 -98.98609 64.16 8.04067 98.59645 11.36223 0.20472 56.92868 97.74746 -64.15963 9.16071 -99.30073 7.68266 2.10454 38.23154 -3.22297 -5.80784 -22.58188 -7.00451 -3.80216 -2.65163 42.2939 6.77136 -0.68477 -27.64742 -6.60305 2.801 2.08123
0.00543 0.00087 -0.00169 22.12739 -22.98916 -6.59588 42.30639 2.44309 -5.72346 -13.24829 -0.31385 -0.41179 75.47002 -98.95197 64.16625 8.34543 99.08687 11.60847 0.10385 58.77706 97.63475 -64.16655 9.47402 -98.97549 7.87121 1.9839 38.21398 -3.23198 -5.75843 -22.58583 -7.00442 -3.80271 -2.65198 42.26024 6.82696 -0.38631 -27.64939 -6.60202 2.78073 2.06297
0.00537 0.00087 -0.00192 22.10089 -22.95964 -6.59237 42.29135 2.43464 -5.69737 -13.26229 -0.26434 -0.41208 76.47485 -98.80552 64.21927 8.32191 99.68253 11.11778 0.04051 60.67876 97.63246 -64.22558 9.93636 -98.93683 8.0781 1.79729 38.18668 -3.23717 -5.70403 -22.58755 -7.00463 -3.80496 -2.65317 42.22037 6.88754 -0.07627 -27.65135 -6.6008 2.76281 2.04434
0.0053 0.00085 -0.00216 22.05791 -22.93735 -6.58289 42.29199 2.41623 -5.68546 -13.31252 -0.22262 -0.41251 77.51858 -98.84934 64.05132 9.01534 100.07832 12.11692 -0.10647 62.37474 97.38256 -64.03774 10.13654 -98.16444 8.25154 1.71379 38.17612 -3.24999 -5.65806 -22.59326 -7.00418 -3.80351 -2.65254 42.18966 6.94688 0.24677 -27.65329 -6.59997 2.73603 2.02389
